<svg xmlns="http://www.w3.org/2000/svg"  viewBox="0 0 80 80" width="80px" height="80px"><path d="M 71.585938 7.4140625 L 69.681641 8.0527344 L 5.6660156 29.503906 L 28.582031 43.736328 L 32.703125 46.296875 L 36.605469 52.578125 L 49.496094 73.333984 L 71.585938 7.4140625 z M 68.414062 10.585938 L 48.951172 68.666016 L 38.304688 51.523438 L 34.15625 44.84375 L 29.636719 42.037109 L 10.333984 30.048828 L 68.414062 10.585938 z M 64 14 A 1 1 0 0 0 63 15 A 1 1 0 0 0 64 16 A 1 1 0 0 0 65 15 A 1 1 0 0 0 64 14 z M 61 17 A 1 1 0 0 0 60 18 A 1 1 0 0 0 61 19 A 1 1 0 0 0 62 18 A 1 1 0 0 0 61 17 z M 58 20 A 1 1 0 0 0 57 21 A 1 1 0 0 0 58 22 A 1 1 0 0 0 59 21 A 1 1 0 0 0 58 20 z M 55 23 A 1 1 0 0 0 54 24 A 1 1 0 0 0 55 25 A 1 1 0 0 0 56 24 A 1 1 0 0 0 55 23 z M 52 26 A 1 1 0 0 0 51 27 A 1 1 0 0 0 52 28 A 1 1 0 0 0 53 27 A 1 1 0 0 0 52 26 z M 49 29 A 1 1 0 0 0 48 30 A 1 1 0 0 0 49 31 A 1 1 0 0 0 50 30 A 1 1 0 0 0 49 29 z M 46 32 A 1 1 0 0 0 45 33 A 1 1 0 0 0 46 34 A 1 1 0 0 0 47 33 A 1 1 0 0 0 46 32 z M 43 35 A 1 1 0 0 0 42 36 A 1 1 0 0 0 43 37 A 1 1 0 0 0 44 36 A 1 1 0 0 0 43 35 z M 40 38 A 1 1 0 0 0 39 39 A 1 1 0 0 0 40 40 A 1 1 0 0 0 41 39 A 1 1 0 0 0 40 38 z M 37 41 A 1 1 0 0 0 36 42 A 1 1 0 0 0 37 43 A 1 1 0 0 0 38 42 A 1 1 0 0 0 37 41 z"/></svg>