<svg xmlns="http://www.w3.org/2000/svg" xmlns:xlink="http://www.w3.org/1999/xlink" viewBox="0,0,256,228.5625" width="60px" height="60px" fill-rule="nonzero"><g fill="#838383" fill-rule="nonzero" stroke="none" stroke-width="1" stroke-linecap="butt" stroke-linejoin="miter" stroke-miterlimit="10" stroke-dasharray="" stroke-dashoffset="0" font-family="none" font-weight="none" font-size="none" text-anchor="none" style="mix-blend-mode: normal"><g transform="scale(4.57143,4.57143)"><path d="M12.0293,0v4h32v-4zM6.0293,6v4h44v-4h-5h-34zM0.0293,12v38h56v-38h-5h-46zM23.05859,21.00391c0.35288,0.00075 0.70553,0.09194 1.01953,0.27344l12.95117,7.52344c0.627,0.363 1,1.01047 1,1.73047c0,0.719 -0.373,1.36547 -1,1.73047l-12.95117,7.52148c-0.32,0.187 -0.67144,0.2793 -1.02344,0.2793c-0.349,0 -0.69858,-0.09239 -1.01758,-0.27539c-0.631,-0.363 -1.00781,-1.01138 -1.00781,-1.73437v-15.04297c0,-0.724 0.37681,-1.37138 1.00781,-1.73437c0.3145,-0.1815 0.66861,-0.27223 1.02148,-0.27148zM23.07227,23.00586l-0.04297,15.04492v0.00391l12.99414,-7.52344z"></path></g></g></svg>