<svg xmlns="http://www.w3.org/2000/svg" xmlns:xlink="http://www.w3.org/1999/xlink" viewBox="0,0,256,256" width="50px" height="50px" fill-rule="nonzero"><g fill="#333333" fill-rule="nonzero" stroke="none" stroke-width="1" stroke-linecap="butt" stroke-linejoin="miter" stroke-miterlimit="10" stroke-dasharray="" stroke-dashoffset="0" font-family="none" font-weight="none" font-size="none" text-anchor="none" style="mix-blend-mode: normal"><g transform="scale(5.12,5.12)"><path d="M25,3.07031c-12.58483,0 -22.92969,8.85505 -22.92969,19.92969c0,6.42732 3.55165,12.08661 8.92969,15.71289c-0.0084,0.21557 0.0081,0.5678 -0.27344,1.61133c-0.34874,1.29283 -1.05338,3.10747 -2.48633,5.14063c-0.19943,0.28317 -0.22489,0.65374 -0.06607,0.96153c0.15882,0.30779 0.47558,0.50176 0.82193,0.50332c6.17727,0.02689 9.75276,-4.02489 10.30859,-4.67773c1.82878,0.40716 3.72375,0.67773 5.69531,0.67773c12.58387,0 22.92969,-8.85499 22.92969,-19.92969c0,-11.07469 -10.34582,-19.92969 -22.92969,-19.92969zM25,4.92969c11.71613,0 21.07031,8.15901 21.07031,18.07031c0,9.91131 -9.35418,18.07031 -21.07031,18.07031c-2.00197,0 -3.93653,-0.23908 -5.76953,-0.68555c-0.35057,-0.08579 -0.71911,0.03909 -0.94531,0.32031c0,0 -2.89026,3.27976 -7.49805,4.05469c0.83303,-1.49486 1.44808,-2.88983 1.73438,-3.95117c0.39901,-1.47917 0.4043,-2.48242 0.4043,-2.48242c0.00006,-0.31837 -0.1628,-0.61462 -0.43164,-0.78516c-5.22694,-3.31343 -8.56445,-8.59775 -8.56445,-14.54102c0,-9.91136 9.35315,-18.07031 21.07031,-18.07031zM14,16c-0.36064,-0.0051 -0.69608,0.18438 -0.87789,0.49587c-0.18181,0.3115 -0.18181,0.69676 0,1.00825c0.18181,0.3115 0.51725,0.50097 0.87789,0.49587h22c0.36064,0.0051 0.69608,-0.18438 0.87789,-0.49587c0.18181,-0.3115 0.18181,-0.69676 0,-1.00825c-0.18181,-0.3115 -0.51725,-0.50097 -0.87789,-0.49587zM10,22c-0.36064,-0.0051 -0.69608,0.18438 -0.87789,0.49587c-0.18181,0.3115 -0.18181,0.69676 0,1.00825c0.18181,0.3115 0.51725,0.50097 0.87789,0.49587h17c0.36064,0.0051 0.69608,-0.18438 0.87789,-0.49587c0.18181,-0.3115 0.18181,-0.69676 0,-1.00825c-0.18181,-0.3115 -0.51725,-0.50097 -0.87789,-0.49587zM33,22c-0.36064,-0.0051 -0.69608,0.18438 -0.87789,0.49587c-0.18181,0.3115 -0.18181,0.69676 0,1.00825c0.18181,0.3115 0.51725,0.50097 0.87789,0.49587h7c0.36064,0.0051 0.69608,-0.18438 0.87789,-0.49587c0.18181,-0.3115 0.18181,-0.69676 0,-1.00825c-0.18181,-0.3115 -0.51725,-0.50097 -0.87789,-0.49587zM14,28c-0.36064,-0.0051 -0.69608,0.18438 -0.87789,0.49587c-0.18181,0.3115 -0.18181,0.69676 0,1.00825c0.18181,0.3115 0.51725,0.50097 0.87789,0.49587h22c0.36064,0.0051 0.69608,-0.18438 0.87789,-0.49587c0.18181,-0.3115 0.18181,-0.69676 0,-1.00825c-0.18181,-0.3115 -0.51725,-0.50097 -0.87789,-0.49587z"></path></g></g></svg>