<svg xmlns="http://www.w3.org/2000/svg" xmlns:xlink="http://www.w3.org/1999/xlink" viewBox="0,0,256,256" width="50px" height="50px" fill-rule="nonzero"><g fill="#333333" fill-rule="nonzero" stroke="none" stroke-width="1" stroke-linecap="butt" stroke-linejoin="miter" stroke-miterlimit="10" stroke-dasharray="" stroke-dashoffset="0" font-family="none" font-weight="none" font-size="none" text-anchor="none" style="mix-blend-mode: normal"><g transform="scale(5.12,5.12)"><path d="M24.96289,1.05469c-0.20987,0.00724 -0.41214,0.08036 -0.57812,0.20898l-23,17.94727c-0.43579,0.33978 -0.51361,0.96851 -0.17383,1.4043c0.33978,0.43579 0.96851,0.51361 1.4043,0.17383l1.38477,-1.08008v26.29102c0.00006,0.55226 0.44774,0.99994 1,1h13.83203c0.10799,0.01785 0.21818,0.01785 0.32617,0h11.67383c0.10799,0.01785 0.21818,0.01785 0.32617,0h13.8418c0.55226,-0.00006 0.99994,-0.44774 1,-1v-26.29102l1.38477,1.08008c0.2819,0.21983 0.65967,0.27257 0.991,0.13833c0.33133,-0.13423 0.56586,-0.43504 0.61526,-0.7891c0.0494,-0.35406 -0.09386,-0.70757 -0.37579,-0.92736l-7.61523,-5.94141c-0.00008,-0.20804 0.00006,-0.44891 0,-0.76172c-0.00014,-0.73149 0.00006,-1.69807 0,-2.66211c-0.00012,-1.92808 0,-3.8457 0,-3.8457c-0.00006,-0.55226 -0.44774,-0.99994 -1,-1h-4c-0.55226,0.00006 -0.99994,0.44774 -1,1c0,0 0.00062,1.15706 0,2.31445c-0.00005,0.09941 0.00006,0.17476 0,0.27344l-9.38477,-7.32422c-0.18607,-0.14428 -0.41707,-0.21828 -0.65234,-0.20898zM25,3.32227l10.37891,8.09766c0.28081,0.21968 0.65734,0.27326 0.98828,0.14063c0,0 0.61912,-0.79868 0.61914,-0.79883c0.00002,-0.00015 0.00506,-0.05333 0.00586,-0.06445c0.0015,-0.02226 0.00165,-0.02843 0.00195,-0.03516c0.00045,-0.01345 0.00175,-0.02009 0.00195,-0.02734c0.00024,-0.0145 -0.00015,-0.02843 0,-0.04687c0.0003,-0.03688 -0.00024,-0.08823 0,-0.15234c0.00048,-0.12823 0.00155,-0.30981 0.00195,-0.52734c0.00052,-0.43507 0.00164,-1.01274 0.00195,-1.5918c0.00035,-0.65815 -0.00007,-0.87093 0,-1.31641h2c0.00001,0.6423 -0.00009,1.41892 0,2.8457c0.00006,0.96408 -0.00014,1.93045 0,2.66211c0.00007,0.36583 -0.0001,0.67211 0,0.89063c0.0001,0.21851 0.00093,0.28258 0.00195,0.37109c0.00338,0.30414 0.14498,0.59022 0.38477,0.77734l4.61328,3.59961v26.85352h-12v-19h-14v19h-12v-26.85156zM20,28h10v17h-10zM27,35c-0.55228,0 -1,0.44772 -1,1c0,0.55228 0.44772,1 1,1c0.55228,0 1,-0.44772 1,-1c0,-0.55228 -0.44772,-1 -1,-1z"></path></g></g></svg>