<svg xmlns="http://www.w3.org/2000/svg" xmlns:xlink="http://www.w3.org/1999/xlink" viewBox="0,0,256,256" width="50px" height="50px" fill-rule="nonzero"><g fill="#707070" fill-rule="nonzero" stroke="none" stroke-width="1" stroke-linecap="butt" stroke-linejoin="miter" stroke-miterlimit="10" stroke-dasharray="" stroke-dashoffset="0" font-family="none" font-weight="none" font-size="none" text-anchor="none" style="mix-blend-mode: normal"><g transform="scale(5.12,5.12)"><path d="M11.95703,13.98828c-0.25781,0.01563 -0.5,0.12891 -0.67578,0.32031l-10.26562,10.69141l10.26563,10.69141c0.24609,0.26172 0.61328,0.37109 0.96094,0.28516c0.34766,-0.08594 0.625,-0.35156 0.72266,-0.69531c0.10156,-0.34766 0.00781,-0.71875 -0.24609,-0.97266l-7.97266,-8.30859h43.25391c0.35938,0.00391 0.69531,-0.18359 0.87891,-0.49609c0.17969,-0.3125 0.17969,-0.69531 0,-1.00781c-0.18359,-0.3125 -0.51953,-0.5 -0.87891,-0.49609h-43.25391l7.97266,-8.30859c0.29297,-0.29297 0.375,-0.73437 0.20313,-1.10937c-0.16797,-0.37891 -0.55078,-0.61328 -0.96484,-0.59375z"></path></g></g></svg>