<svg xmlns="http://www.w3.org/2000/svg" xmlns:xlink="http://www.w3.org/1999/xlink" viewBox="0,0,256,256" width="30px" height="30px" fill-rule="nonzero"><g fill="#333333" fill-rule="nonzero" stroke="none" stroke-width="1" stroke-linecap="butt" stroke-linejoin="miter" stroke-miterlimit="10" stroke-dasharray="" stroke-dashoffset="0" font-family="none" font-weight="none" font-size="none" text-anchor="none" style="mix-blend-mode: normal"><g transform="scale(8.53333,8.53333)"><path d="M6,4c-1.105,0 -2,0.895 -2,2v2h4v-4zM10,4v4h4v-4zM16,4v4h4v-4zM22,4v4h4v-2c0,-1.105 -0.895,-2 -2,-2zM4,10v4h4v-4zM10,10v4h4v-4zM16,10v4h4v-4zM22,10v4h4v-4zM4,16v4h4v-4zM10,16v4h4v-4zM16,16v4h4v-4zM22,16v4h4v-4zM4,22v2c0,1.105 0.895,2 2,2h2v-4zM10,22v4h4v-4zM16,22v4h4v-4zM22,22v4h2c1.105,0 2,-0.895 2,-2v-2z"></path></g></g></svg>