<svg xmlns="http://www.w3.org/2000/svg" xmlns:xlink="http://www.w3.org/1999/xlink" viewBox="0,0,256,256" width="50px" height="50px" fill-rule="nonzero"><g fill="#333333" fill-rule="nonzero" stroke="none" stroke-width="1" stroke-linecap="butt" stroke-linejoin="miter" stroke-miterlimit="10" stroke-dasharray="" stroke-dashoffset="0" font-family="none" font-weight="none" font-size="none" text-anchor="none" style="mix-blend-mode: normal"><g transform="scale(5.12,5.12)"><path d="M9,4c-2.74545,0 -5,2.25455 -5,5v32c0,2.74546 2.25455,5 5,5h32c2.74546,0 5,-2.25455 5,-5v-32c0,-2.74545 -2.25455,-5 -5,-5zM9,6h32c1.65454,0 3,1.34545 3,3v32c0,1.65454 -1.34546,3 -3,3h-32c-1.65455,0 -3,-1.34546 -3,-3v-32c0,-1.65455 1.34545,-3 3,-3zM24,13v11h-11v2h11v11h2v-11h11v-2h-11v-11z"></path></g></g></svg>